<?xml version="1.0" standalone="no"?>
<!DOCTYPE svg PUBLIC "-//W3C//DTD SVG 20010904//EN"
 "http://www.w3.org/TR/2001/REC-SVG-20010904/DTD/svg10.dtd">
<svg version="1.0" xmlns="http://www.w3.org/2000/svg"
 width="1285.000000pt" height="1285.000000pt" viewBox="0 0 1285.000000 1285.000000"
 preserveAspectRatio="xMidYMid meet">
<metadata>
Created by potrace 1.11, written by Peter Selinger 2001-2013
</metadata>
<g transform="translate(0.000000,1285.000000) scale(0.100000,-0.100000)"
fill="#000000" stroke="none">
<path d="M6777 12458 c-26 -5 -72 -19 -101 -32 -43 -19 -272 -178 -426 -296
-19 -15 -307 -226 -640 -469 -333 -242 -729 -532 -880 -643 -151 -110 -426
-311 -610 -446 -184 -135 -366 -269 -405 -297 -38 -28 -122 -90 -185 -136 -63
-47 -158 -116 -210 -154 -52 -37 -111 -80 -130 -95 -19 -14 -195 -143 -390
-285 -195 -142 -386 -281 -425 -310 -38 -28 -198 -145 -355 -260 -1046 -765
-1097 -804 -1173 -897 -58 -72 -72 -119 -93 -328 -4 -39 -4 -591 0 -660 2 -25
6 -151 10 -280 4 -129 9 -260 11 -290 2 -30 6 -128 10 -217 4 -89 8 -180 10
-201 2 -22 6 -107 10 -189 3 -81 8 -168 10 -193 2 -25 7 -101 10 -170 4 -69 8
-150 10 -180 2 -30 7 -113 10 -185 4 -71 8 -146 10 -165 2 -19 6 -93 10 -165
4 -71 8 -148 10 -170 2 -22 6 -92 10 -155 3 -63 8 -126 10 -140 2 -14 7 -74
10 -135 4 -60 8 -121 10 -135 2 -14 7 -63 10 -110 6 -88 32 -369 40 -430 2
-19 7 -60 10 -90 12 -112 17 -150 51 -385 41 -291 41 -286 60 -410 9 -55 18
-113 20 -130 2 -16 6 -41 9 -55 3 -14 7 -38 9 -55 3 -16 19 -113 36 -215 17
-102 33 -197 35 -212 3 -16 7 -43 10 -60 3 -18 8 -42 12 -52 9 -32 6 -132 -6
-168 -18 -53 -71 -97 -276 -223 -328 -203 -735 -465 -785 -507 -60 -49 -104
-163 -94 -241 18 -126 85 -197 234 -247 149 -50 282 -63 740 -75 438 -11 828
-24 901 -30 104 -8 318 -17 435 -18 122 -1 382 11 394 18 3 1 32 6 65 10 33 3
134 20 225 36 192 34 228 40 255 44 63 10 167 25 215 31 87 10 350 13 405 4
28 -4 86 -11 130 -15 44 -4 82 -8 85 -10 3 -2 45 -6 95 -10 49 -4 92 -8 95
-10 3 -1 46 -6 95 -9 50 -4 97 -9 105 -11 8 -2 54 -6 102 -10 48 -3 98 -8 110
-10 13 -2 64 -6 113 -10 50 -4 108 -8 130 -10 22 -2 81 -6 130 -10 50 -3 108
-8 130 -10 22 -3 90 -7 150 -10 61 -3 128 -8 150 -10 22 -2 87 -7 145 -10 58
-4 134 -8 170 -10 36 -2 110 -7 165 -10 55 -3 125 -8 155 -10 30 -2 109 -7
175 -10 66 -3 140 -8 165 -10 25 -2 106 -7 180 -10 74 -4 151 -9 170 -12 60
-8 1194 -10 1216 -2 23 8 85 12 524 34 222 11 447 31 750 65 217 25 218 25
410 55 155 24 385 65 500 90 279 61 363 82 495 126 172 58 242 75 340 84 179
16 295 35 437 71 264 66 468 178 645 353 320 315 518 656 579 996 17 94 18
242 19 2520 2 2104 5 2568 20 2733 1 19 6 88 10 155 4 67 8 133 10 147 7 63
19 368 20 490 0 131 -1 136 -30 189 -16 30 -52 74 -80 98 -47 41 -292 212
-597 418 -404 273 -582 394 -753 511 -104 72 -239 164 -300 206 -60 41 -139
94 -174 119 -36 24 -133 91 -218 149 -84 58 -321 220 -525 360 -339 232 -959
656 -1313 898 -353 241 -965 649 -1115 744 -291 184 -713 432 -765 450 -62 21
-134 26 -198 16z"/>
</g>
</svg>
